# xmcd
#
# Track frame offsets:
#	150
#	14699
#	29330
#	43793
#	55246
#	71203
#	88757
#	104154
#	118917
#	130055
#
# Disc length: 1953 seconds
#
# Revision: 1
# Processed by: cddbd v1.5.2PL0 Copyright (c) Steve Scherf et al.
# Submitted via: EasyCDDAExtractor 16.0.6.1
#
DISCID=97079f0a
DTITLE=Massiel - Solo Exitos
DYEAR=1981
DGENRE=Balada
TTITLE0=Eres
TTITLE1=Sola en libertad
TTITLE2=Acordeón
TTITLE3=Autoretrato
TTITLE4=Brindaremos por él
TTITLE5=Marinero
TTITLE6=Más fuerte
TTITLE7=No voy a morir por tí
TTITLE8=Quiero amarte hasta el fondo de mí
TTITLE9=Basta de peleas
EXTD=
EXTT0=
EXTT1=
EXTT2=
EXTT3=
EXTT4=
EXTT5=
EXTT6=
EXTT7=
EXTT8=
EXTT9=
PLAYORDER=
